<?xml version="1.0" standalone="no"?>
<!DOCTYPE svg PUBLIC "-//W3C//DTD SVG 20010904//EN"
"http://www.w3.org/TR/2001/REC-SVG-20010904/DTD/svg10.dtd">
<svg version="1.0" xmlns="http://www.w3.org/2000/svg"
width="68.000000pt" height="158.000000pt" viewBox="0 0 68.000000 158.000000"
preserveAspectRatio="xMidYMid meet">

<g transform="translate(0.000000,158.000000) scale(0.100000,-0.100000)"
fill="#132a36" stroke="none">
<path d="M627 1513 c-12 -143 -104 -287 -232 -364 -77 -46 -225 -93 -330 -104
l-65 -7 0 -244 0 -244 25 0 c14 0 51 -8 83 -19 31 -10 89 -24 127 -30 124 -21
264 -119 329 -231 19 -33 48 -105 63 -161 15 -56 34 -104 41 -107 9 -3 12 161
12 787 l0 791 -24 0 c-21 0 -24 -5 -29 -67z"/>
</g>
</svg>
